<svg xmlns="http://www.w3.org/2000/svg" xmlns:xlink="http://www.w3.org/1999/xlink" width="120" zoomAndPan="magnify" viewBox="0 0 90 44.999999" height="60" preserveAspectRatio="xMidYMid meet" version="1.0"><defs><g/><clipPath id="6d007741fe"><path d="M 11.164062 5.328125 L 44.914062 5.328125 L 44.914062 39.828125 L 11.164062 39.828125 Z M 11.164062 5.328125 " clip-rule="nonzero"/></clipPath><clipPath id="3907d22005"><path d="M 70 21 L 78 21 L 78 29 L 70 29 Z M 70 21 " clip-rule="nonzero"/></clipPath><clipPath id="ebbeaf364f"><path d="M 70.394531 20.058594 L 75.152344 17.84375 L 78.949219 26.003906 L 74.191406 28.21875 Z M 70.394531 20.058594 " clip-rule="nonzero"/></clipPath><clipPath id="d580c9a616"><path d="M 31.996094 37.925781 L 75.515625 17.675781 L 93.550781 56.433594 L 50.03125 76.6875 Z M 31.996094 37.925781 " clip-rule="nonzero"/></clipPath></defs><g clip-path="url(#6d007741fe)"><path fill="#5454ae" d="M 16.800781 21.34375 C 16.898438 21.355469 16.84375 21.503906 16.734375 21.515625 C 15.609375 21.644531 15.164062 21.964844 14.636719 23.046875 C 14.613281 23.09375 14.574219 23.121094 14.519531 23.121094 C 14.457031 23.128906 14.4375 23.105469 14.460938 23.046875 C 14.738281 21.96875 14.535156 21.644531 13.503906 21.515625 C 13.40625 21.503906 13.464844 21.355469 13.570312 21.34375 C 14.695312 21.214844 15.140625 20.894531 15.671875 19.816406 C 15.695312 19.765625 15.730469 19.742188 15.785156 19.738281 C 15.808594 19.734375 15.824219 19.742188 15.835938 19.761719 C 15.851562 19.777344 15.851562 19.796875 15.84375 19.816406 C 15.566406 20.890625 15.769531 21.214844 16.800781 21.34375 Z M 18.398438 24.578125 C 18.34375 24.574219 18.316406 24.546875 18.3125 24.492188 L 18.257812 22.167969 C 18.257812 22.109375 18.207031 22.082031 18.144531 22.082031 C 18.066406 22.085938 18 22.113281 17.941406 22.167969 L 15.441406 24.472656 C 15.394531 24.519531 15.335938 24.546875 15.265625 24.558594 L 12.210938 24.914062 C 12.058594 24.929688 11.917969 25.085938 11.972656 25.175781 L 13.09375 26.988281 C 13.113281 27.039062 13.109375 27.085938 13.070312 27.125 L 11.234375 29.667969 C 11.164062 29.769531 11.210938 29.847656 11.3125 29.847656 C 11.34375 29.847656 11.375 29.84375 11.402344 29.832031 L 14.597656 28.648438 C 14.625 28.636719 14.65625 28.632812 14.6875 28.628906 C 14.710938 28.628906 14.738281 28.636719 14.757812 28.648438 L 16.6875 29.867188 C 16.707031 29.878906 16.730469 29.882812 16.757812 29.882812 C 16.882812 29.878906 16.972656 29.816406 17.023438 29.703125 L 17.878906 27.15625 C 17.90625 27.097656 17.945312 27.050781 18.003906 27.019531 L 21.023438 25.230469 C 21.175781 25.144531 21.203125 24.984375 21.070312 24.964844 Z M 48.023438 8.148438 C 48.035156 8.117188 48.03125 8.085938 48.007812 8.058594 C 47.988281 8.03125 47.960938 8.019531 47.925781 8.023438 C 47.835938 8.027344 47.773438 8.070312 47.734375 8.148438 C 47.113281 9.335938 46.542969 9.75 45.289062 9.925781 C 45.117188 9.953125 45.027344 10.191406 45.183594 10.214844 C 46.304688 10.390625 46.5625 10.808594 46.296875 11.996094 C 46.285156 12.027344 46.289062 12.054688 46.3125 12.082031 C 46.332031 12.109375 46.359375 12.121094 46.394531 12.117188 C 46.484375 12.113281 46.546875 12.074219 46.585938 11.996094 C 47.207031 10.808594 47.777344 10.390625 49.03125 10.214844 C 49.207031 10.191406 49.292969 9.953125 49.136719 9.925781 C 48.015625 9.75 47.753906 9.335938 48.023438 8.148438 Z M 38.101562 5.332031 C 34.910156 5.332031 31.191406 6.964844 27.644531 9.660156 C 30.425781 7.796875 33.261719 6.699219 35.742188 6.699219 L 35.8125 6.699219 C 42.003906 6.75 43.585938 13.699219 39.34375 22.210938 C 35.117188 30.695312 26.707031 37.535156 20.523438 37.535156 L 20.453125 37.535156 C 16.683594 37.5 14.625 34.914062 14.546875 30.96875 C 14.140625 36.128906 16.457031 39.621094 21.078125 39.664062 L 21.160156 39.664062 C 28.046875 39.664062 37.40625 32.046875 42.113281 22.605469 C 46.835938 13.125 45.074219 5.390625 38.183594 5.332031 Z M 38.101562 5.332031 " fill-opacity="1" fill-rule="nonzero"/></g><path stroke-linecap="butt" transform="matrix(0.948475, 0, 0, 0.948475, 24.529379, 11.532613)" fill="none" stroke-linejoin="miter" d="M 14.923129 15.129761 C 14.923129 11.468456 11.19181 10.142314 8.280064 11.468456 C 9.445586 10.142314 11.451273 9.508072 13.152194 9.718113 C 13.782318 9.788127 14.36302 9.977575 14.853116 10.278223 L 14.853116 3.935804 C 11.961961 2.790874 8.580711 3.701052 8.700146 7.551806 C 8.745449 9.133292 8.255353 11.167808 6.434997 11.303717 L 6.434997 3.820487 L 0.702109 3.820487 L 0.702109 19.001107 L 6.434997 19.001107 L 6.434997 12.098579 C 8.140036 12.189185 9.120228 13.61417 9.120228 15.129761 L 9.120228 18.976396 L 14.923129 18.976396 Z M 28.468723 10.397658 L 28.489315 3.820487 L 19.98059 3.820487 C 15.314382 3.820487 14.593653 10.022878 18.83566 11.32431 C 14.478336 12.633978 14.713088 18.976396 19.98059 18.976396 L 28.468723 18.976396 L 28.489315 12.353923 C 27.323793 12.353923 23.225932 12.12329 23.271235 15.66516 C 23.271235 16.855393 23.761331 17.621425 24.461468 18.111521 L 24.342033 18.366865 C 22.682296 17.996204 21.636209 16.274691 21.656801 14.614954 C 21.706222 12.679281 23.427736 11.608483 25.363409 11.559062 L 25.363409 11.093676 C 22.99118 11.023663 21.611498 9.063279 21.726815 7.271751 C 21.800947 5.91678 22.801731 4.681244 24.317322 4.4259 L 24.436757 4.681244 C 23.73662 5.17134 23.246524 5.941491 23.271235 7.127606 C 23.316538 11.093676 28.468723 10.397658 28.468723 10.397658 Z M 35.387725 12.568083 L 35.387725 3.820487 L 29.490099 3.820487 L 29.490099 18.976396 L 38.913121 18.976396 L 38.913121 12.633978 C 37.813494 12.633978 33.686804 12.403345 33.732107 15.759884 C 33.756817 17.040723 34.366348 17.810874 35.157092 18.255667 L 35.066486 18.511011 C 32.966074 18.230956 32.335951 16.974828 32.335951 15.66516 C 32.286529 13.729487 33.571487 12.703992 35.387725 12.568083 Z M 35.387725 12.568083 " stroke="#5454ae" stroke-width="2.070449" stroke-opacity="1" stroke-miterlimit="4"/><g fill="#fbfaff" fill-opacity="1"><g transform="translate(24.529379, 29.553637)"><g><path d="M 14.15625 -3.671875 C 14.15625 -7.144531 10.617188 -8.40625 7.851562 -7.144531 C 8.957031 -8.40625 10.859375 -9.003906 12.476562 -8.804688 C 13.070312 -8.738281 13.625 -8.558594 14.089844 -8.273438 L 14.089844 -14.289062 C 11.347656 -15.371094 8.140625 -14.507812 8.25 -10.859375 C 8.292969 -9.355469 7.828125 -7.433594 6.105469 -7.300781 L 6.105469 -14.398438 L 0.664062 -14.398438 L 0.664062 0 L 6.105469 0 L 6.105469 -6.546875 C 7.71875 -6.457031 8.648438 -5.109375 8.648438 -3.671875 L 8.648438 -0.0234375 L 14.15625 -0.0234375 Z M 14.15625 -3.671875 "/></g></g></g><g fill="#fbfaff" fill-opacity="1"><g transform="translate(39.056459, 29.553637)"><g><path d="M 12.476562 -8.160156 L 12.496094 -14.398438 L 4.421875 -14.398438 C 0 -14.398438 -0.6875 -8.515625 3.339844 -7.277344 C -0.796875 -6.039062 -0.574219 -0.0234375 4.421875 -0.0234375 L 12.476562 -0.0234375 L 12.496094 -6.304688 C 11.390625 -6.304688 7.5 -6.523438 7.542969 -3.164062 C 7.542969 -2.035156 8.007812 -1.304688 8.671875 -0.839844 L 8.558594 -0.597656 C 6.988281 -0.949219 5.992188 -2.585938 6.015625 -4.160156 C 6.058594 -5.992188 7.695312 -7.011719 9.53125 -7.054688 L 9.53125 -7.5 C 7.277344 -7.566406 5.972656 -9.421875 6.082031 -11.125 C 6.148438 -12.410156 7.101562 -13.582031 8.539062 -13.824219 L 8.648438 -13.582031 C 7.984375 -13.117188 7.519531 -12.386719 7.542969 -11.257812 C 7.585938 -7.5 12.476562 -8.160156 12.476562 -8.160156 Z M 12.476562 -8.160156 "/></g></g></g><g fill="#fbfaff" fill-opacity="1"><g transform="translate(51.836727, 29.553637)"><g><path d="M 6.257812 -6.105469 L 6.257812 -14.398438 L 0.664062 -14.398438 L 0.664062 -0.0234375 L 9.597656 -0.0234375 L 9.597656 -6.039062 C 8.558594 -6.039062 4.644531 -6.257812 4.6875 -3.074219 C 4.710938 -1.859375 5.285156 -1.128906 6.039062 -0.707031 L 5.949219 -0.464844 C 3.960938 -0.730469 3.363281 -1.925781 3.363281 -3.164062 C 3.316406 -5 4.535156 -5.972656 6.257812 -6.105469 Z M 6.257812 -6.105469 "/></g></g></g><g clip-path="url(#3907d22005)"><g clip-path="url(#ebbeaf364f)"><g clip-path="url(#d580c9a616)"><path fill="#5454ae" d="M 46.816406 53.09375 C 46.9375 53.054688 46.949219 53.253906 46.835938 53.324219 C 45.628906 54.0625 45.292969 54.660156 45.261719 56.164062 C 45.261719 56.230469 45.234375 56.28125 45.171875 56.3125 C 45.148438 56.324219 45.125 56.324219 45.101562 56.3125 C 45.078125 56.300781 45.066406 56.28125 45.066406 56.253906 C 44.8125 54.886719 44.414062 54.628906 43.175781 55.027344 C 43.058594 55.066406 43.042969 54.867188 43.160156 54.796875 C 44.367188 54.058594 44.703125 53.460938 44.730469 51.957031 C 44.730469 51.890625 44.761719 51.839844 44.824219 51.808594 C 44.84375 51.796875 44.867188 51.796875 44.890625 51.808594 C 44.917969 51.820312 44.929688 51.839844 44.929688 51.867188 C 45.183594 53.234375 45.582031 53.492188 46.816406 53.09375 Z M 50.332031 55.914062 C 50.269531 55.941406 50.222656 55.921875 50.191406 55.863281 L 48.902344 53.261719 C 48.871094 53.195312 48.796875 53.191406 48.730469 53.222656 C 48.640625 53.265625 48.582031 53.335938 48.542969 53.425781 L 46.929688 57.355469 C 46.898438 57.433594 46.847656 57.496094 46.773438 57.542969 L 43.5 59.554688 C 43.335938 59.65625 43.257812 59.90625 43.371094 59.980469 L 45.59375 61.441406 C 45.644531 61.488281 45.660156 61.542969 45.640625 61.609375 L 44.902344 65.453125 C 44.871094 65.605469 44.96875 65.671875 45.085938 65.621094 C 45.121094 65.601562 45.152344 65.582031 45.179688 65.550781 L 48.171875 62.527344 C 48.199219 62.5 48.230469 62.476562 48.265625 62.460938 C 48.292969 62.445312 48.324219 62.441406 48.355469 62.445312 L 51.179688 62.804688 C 51.210938 62.808594 51.242188 62.804688 51.269531 62.789062 C 51.410156 62.714844 51.480469 62.601562 51.476562 62.445312 L 51.105469 59.109375 C 51.101562 59.027344 51.121094 58.957031 51.171875 58.890625 L 53.652344 55.273438 C 53.777344 55.089844 53.722656 54.898438 53.5625 54.949219 Z M 75.226562 21.691406 C 75.222656 21.648438 75.199219 21.617188 75.164062 21.597656 C 75.125 21.578125 75.085938 21.582031 75.050781 21.605469 C 74.953125 21.65625 74.902344 21.734375 74.898438 21.84375 C 74.820312 23.515625 74.394531 24.289062 73.070312 25.148438 C 72.882812 25.269531 72.90625 25.585938 73.097656 25.53125 C 74.460938 25.140625 74.972656 25.472656 75.296875 26.957031 C 75.300781 27 75.324219 27.03125 75.363281 27.050781 C 75.398438 27.070312 75.4375 27.070312 75.476562 27.046875 C 75.570312 26.996094 75.621094 26.917969 75.625 26.808594 C 75.703125 25.136719 76.128906 24.363281 77.457031 23.503906 C 77.640625 23.382812 77.617188 23.066406 77.425781 23.121094 C 76.0625 23.511719 75.546875 23.179688 75.226562 21.691406 Z M 62.503906 23.730469 C 58.886719 25.414062 55.539062 29.226562 52.941406 34.148438 C 55.109375 30.570312 57.746094 27.832031 60.550781 26.527344 L 60.632812 26.488281 C 67.671875 23.28125 73.125 30.316406 72.804688 42.195312 C 72.492188 54.03125 66.574219 66.207031 59.566406 69.46875 L 59.488281 69.507812 C 55.199219 71.457031 51.503906 69.609375 49.339844 65.1875 C 51.597656 71.242188 56.058594 73.980469 61.320312 71.585938 L 61.410156 71.546875 C 69.207031 67.917969 75.796875 54.359375 76.148438 41.183594 C 76.503906 27.957031 70.433594 20.125 62.59375 23.6875 Z M 62.503906 23.730469 " fill-opacity="1" fill-rule="nonzero"/></g></g></g><path stroke-linecap="butt" transform="matrix(0.948475, 0, 0, 0.948475, 59.015548, 11.532613)" fill="none" stroke-linejoin="miter" d="M 5.432321 12.304502 C 5.06166 12.679281 4.806316 13.169377 4.806316 13.914817 L 4.806316 19.001107 L 10.633928 19.001107 L 10.633928 14.870298 C 10.633928 11.678497 14.921238 11.933841 14.921238 8.461985 L 14.921238 3.845198 L 9.233654 3.845198 L 9.233654 8.20664 C 9.233654 10.113484 8.422318 11.068966 6.92732 11.579654 C 5.996549 11.913249 4.896922 11.653786 4.851619 10.512974 C 4.806316 9.788127 5.452913 9.232135 6.177761 9.252728 L 6.15305 3.845198 L 0.556072 3.845198 L 0.556072 8.461985 C 0.556072 11.143098 3.125987 12.353923 5.432321 12.304502 Z M 5.432321 12.304502 " stroke="#5454ae" stroke-width="2.070449" stroke-opacity="1" stroke-miterlimit="4"/><g fill="#fbfaff" fill-opacity="1"><g transform="translate(59.015548, 29.553637)"><g><path d="M 5.152344 -6.347656 C 4.800781 -5.992188 4.554688 -5.53125 4.554688 -4.820312 L 4.554688 0 L 10.085938 0 L 10.085938 -3.914062 C 10.085938 -6.945312 14.15625 -6.703125 14.15625 -9.996094 L 14.15625 -14.378906 L 8.757812 -14.378906 L 8.757812 -10.242188 C 8.757812 -8.425781 7.984375 -7.519531 6.570312 -7.035156 C 5.683594 -6.722656 4.644531 -6.96875 4.601562 -8.050781 C 4.554688 -8.738281 5.175781 -9.269531 5.863281 -9.246094 L 5.839844 -14.378906 L 0.53125 -14.378906 L 0.53125 -9.996094 C 0.53125 -7.453125 2.964844 -6.304688 5.152344 -6.347656 Z M 5.152344 -6.347656 "/></g></g></g></svg>