<svg xmlns="http://www.w3.org/2000/svg" xmlns:xlink="http://www.w3.org/1999/xlink" width="48" zoomAndPan="magnify" viewBox="0 0 36 36.000001" height="48" preserveAspectRatio="xMidYMid meet" version="1.0"><defs><g/><clipPath id="07bfb8364c"><path d="M 0.488281 8.292969 L 18 8.292969 L 18 25.808594 L 0.488281 25.808594 Z M 0.488281 8.292969 " clip-rule="nonzero"/></clipPath><clipPath id="2638e2424c"><path d="M 31 17 L 35 17 L 35 21 L 31 21 Z M 31 17 " clip-rule="nonzero"/></clipPath><clipPath id="e652a90940"><path d="M 31.160156 16.621094 L 33.808594 15.386719 L 35.65625 19.359375 L 33.007812 20.589844 Z M 31.160156 16.621094 " clip-rule="nonzero"/></clipPath><clipPath id="183e77ad1c"><path d="M 11.359375 25.832031 L 33.855469 15.367188 L 43.089844 35.214844 L 20.597656 45.683594 Z M 11.359375 25.832031 " clip-rule="nonzero"/></clipPath><clipPath id="9cf4ccf7b7"><path d="M 19 8 L 35.511719 8 L 35.511719 28 L 19 28 Z M 19 8 " clip-rule="nonzero"/></clipPath></defs><g clip-path="url(#07bfb8364c)"><path fill="#5d5a87" d="M 3.390625 16.550781 C 3.441406 16.558594 3.414062 16.636719 3.359375 16.640625 C 2.777344 16.707031 2.546875 16.875 2.277344 17.429688 C 2.261719 17.457031 2.242188 17.46875 2.214844 17.46875 C 2.183594 17.472656 2.171875 17.460938 2.1875 17.429688 C 2.328125 16.875 2.222656 16.707031 1.691406 16.640625 C 1.640625 16.636719 1.671875 16.558594 1.726562 16.554688 C 2.308594 16.488281 2.535156 16.320312 2.808594 15.765625 C 2.820312 15.738281 2.839844 15.726562 2.867188 15.726562 C 2.878906 15.722656 2.886719 15.726562 2.894531 15.738281 C 2.902344 15.746094 2.902344 15.753906 2.898438 15.765625 C 2.753906 16.320312 2.859375 16.488281 3.390625 16.550781 Z M 4.214844 18.21875 C 4.1875 18.21875 4.171875 18.203125 4.171875 18.175781 L 4.140625 16.980469 C 4.140625 16.949219 4.117188 16.933594 4.082031 16.933594 C 4.042969 16.933594 4.007812 16.949219 3.980469 16.976562 L 2.691406 18.167969 C 2.664062 18.191406 2.636719 18.203125 2.601562 18.210938 L 1.023438 18.390625 C 0.945312 18.402344 0.875 18.480469 0.902344 18.527344 L 1.480469 19.464844 C 1.492188 19.488281 1.488281 19.511719 1.46875 19.535156 L 0.523438 20.84375 C 0.484375 20.894531 0.507812 20.9375 0.5625 20.9375 C 0.578125 20.9375 0.59375 20.933594 0.609375 20.929688 L 2.253906 20.316406 C 2.269531 20.3125 2.285156 20.308594 2.300781 20.308594 C 2.316406 20.308594 2.328125 20.3125 2.339844 20.320312 L 3.332031 20.945312 C 3.34375 20.953125 3.355469 20.957031 3.371094 20.957031 C 3.433594 20.953125 3.480469 20.921875 3.507812 20.863281 L 3.949219 19.550781 C 3.960938 19.519531 3.980469 19.496094 4.011719 19.480469 L 5.570312 18.558594 C 5.648438 18.511719 5.660156 18.429688 5.589844 18.421875 Z M 19.484375 9.75 C 19.503906 9.703125 19.488281 9.679688 19.4375 9.6875 C 19.390625 9.6875 19.359375 9.710938 19.335938 9.75 C 19.019531 10.363281 18.722656 10.578125 18.078125 10.667969 C 17.988281 10.679688 17.941406 10.804688 18.023438 10.816406 C 18.601562 10.90625 18.734375 11.121094 18.597656 11.734375 C 18.578125 11.78125 18.59375 11.804688 18.648438 11.796875 C 18.691406 11.796875 18.726562 11.773438 18.746094 11.734375 C 19.066406 11.121094 19.359375 10.90625 20.003906 10.816406 C 20.09375 10.804688 20.140625 10.679688 20.0625 10.667969 C 19.480469 10.578125 19.347656 10.363281 19.484375 9.75 Z M 14.371094 8.296875 C 12.726562 8.296875 10.808594 9.140625 8.980469 10.53125 C 10.414062 9.570312 11.878906 9.003906 13.15625 9.003906 L 13.191406 9.003906 C 16.382812 9.03125 17.199219 12.613281 15.011719 17 C 12.832031 21.371094 8.5 24.898438 5.3125 24.898438 L 5.273438 24.898438 C 3.332031 24.882812 2.269531 23.546875 2.230469 21.515625 C 2.019531 24.175781 3.214844 25.976562 5.597656 25.996094 L 5.636719 25.996094 C 9.1875 25.996094 14.011719 22.070312 16.4375 17.203125 C 18.875 12.316406 17.964844 8.328125 14.414062 8.296875 Z M 14.371094 8.296875 " fill-opacity="1" fill-rule="nonzero"/></g><path stroke-linecap="butt" transform="matrix(0.4891, 0, 0, 0.4891, 7.510132, 12.223142)" fill="none" stroke-linejoin="miter" d="M 14.922227 15.125641 C 14.922227 11.467775 11.192481 10.141998 8.277369 11.467775 C 9.443414 10.141998 11.448053 9.511056 13.1492 9.718708 C 13.780142 9.790587 14.363164 9.974279 14.850347 10.277771 L 14.850347 3.936404 C 11.959195 2.794319 8.58086 3.704792 8.70066 7.554337 C 8.748579 9.135686 8.253409 11.164284 6.432463 11.300056 L 6.432463 3.824592 L 0.698079 3.824592 L 0.698079 18.999146 L 6.432463 18.999146 L 6.432463 12.098717 C 8.141597 12.194556 9.12395 13.616173 9.12395 15.125641 L 9.12395 18.975186 L 14.922227 18.975186 Z M 28.467513 10.39757 L 28.491473 3.824592 L 19.97775 3.824592 C 15.313571 3.824592 14.594776 10.022199 18.835665 11.324016 C 14.482963 12.63382 14.714575 18.975186 19.97775 18.975186 L 28.467513 18.975186 L 28.491473 12.354289 C 27.325429 12.354289 23.228299 12.122677 23.268232 15.660744 C 23.268232 16.850749 23.763402 17.62545 24.458236 18.112633 L 24.338437 18.368204 C 22.685209 18.00082 21.638964 16.275713 21.654937 14.614498 C 21.702857 12.681739 23.427964 11.611534 25.36871 11.555628 L 25.36871 11.092405 C 22.988701 11.020525 21.615004 9.063806 21.726817 7.274806 C 21.798696 5.917083 22.805009 4.679159 24.314477 4.423587 L 24.434277 4.679159 C 23.739442 5.174328 23.244272 5.941043 23.268232 7.131047 C 23.316151 11.092405 28.467513 10.39757 28.467513 10.39757 Z M 35.391902 12.569927 L 35.391902 3.824592 L 29.489799 3.824592 L 29.489799 18.975186 L 38.913996 18.975186 L 38.913996 12.63382 C 37.811844 12.63382 33.690755 12.402208 33.730688 15.756583 C 33.754648 17.042427 34.36163 17.809142 35.152304 18.256392 L 35.064451 18.511963 C 32.963974 18.232432 32.341018 16.970548 32.341018 15.660744 C 32.285112 13.727985 33.570956 12.705699 35.391902 12.569927 Z M 35.391902 12.569927 " stroke="#5d5a87" stroke-width="2.070449" stroke-opacity="1" stroke-miterlimit="4"/><g fill="#fbfaff" fill-opacity="1"><g transform="translate(7.510132, 21.516043)"><g><path d="M 7.300781 -1.894531 C 7.300781 -3.683594 5.476562 -4.335938 4.050781 -3.683594 C 4.621094 -4.335938 5.601562 -4.640625 6.433594 -4.539062 C 6.742188 -4.503906 7.027344 -4.414062 7.265625 -4.265625 L 7.265625 -7.367188 C 5.851562 -7.925781 4.199219 -7.480469 4.253906 -5.601562 C 4.277344 -4.824219 4.039062 -3.832031 3.148438 -3.765625 L 3.148438 -7.425781 L 0.34375 -7.425781 L 0.34375 0 L 3.148438 0 L 3.148438 -3.375 C 3.980469 -3.332031 4.460938 -2.632812 4.460938 -1.894531 L 4.460938 -0.0117188 L 7.300781 -0.0117188 Z M 7.300781 -1.894531 "/></g></g></g><g fill="#fbfaff" fill-opacity="1"><g transform="translate(15.00131, 21.516043)"><g><path d="M 6.433594 -4.207031 L 6.445312 -7.425781 L 2.28125 -7.425781 C 0 -7.425781 -0.355469 -4.390625 1.722656 -3.753906 C -0.410156 -3.113281 -0.296875 -0.0117188 2.28125 -0.0117188 L 6.433594 -0.0117188 L 6.445312 -3.25 C 5.875 -3.25 3.867188 -3.363281 3.890625 -1.632812 C 3.890625 -1.050781 4.128906 -0.671875 4.472656 -0.433594 L 4.414062 -0.308594 C 3.605469 -0.492188 3.089844 -1.335938 3.101562 -2.144531 C 3.125 -3.089844 3.96875 -3.617188 4.914062 -3.636719 L 4.914062 -3.867188 C 3.753906 -3.902344 3.078125 -4.859375 3.136719 -5.738281 C 3.171875 -6.398438 3.660156 -7.003906 4.402344 -7.128906 L 4.460938 -7.003906 C 4.117188 -6.761719 3.878906 -6.386719 3.890625 -5.804688 C 3.914062 -3.867188 6.433594 -4.207031 6.433594 -4.207031 Z M 6.433594 -4.207031 "/></g></g></g><g fill="#fbfaff" fill-opacity="1"><g transform="translate(21.59171, 21.516043)"><g><path d="M 3.226562 -3.148438 L 3.226562 -7.425781 L 0.34375 -7.425781 L 0.34375 -0.0117188 L 4.949219 -0.0117188 L 4.949219 -3.113281 C 4.414062 -3.113281 2.394531 -3.226562 2.417969 -1.585938 C 2.429688 -0.957031 2.726562 -0.582031 3.113281 -0.363281 L 3.066406 -0.238281 C 2.042969 -0.375 1.734375 -0.992188 1.734375 -1.632812 C 1.710938 -2.578125 2.339844 -3.078125 3.226562 -3.148438 Z M 3.226562 -3.148438 "/></g></g></g><g clip-path="url(#2638e2424c)"><g clip-path="url(#e652a90940)"><g clip-path="url(#183e77ad1c)"><path fill="#5d5a87" d="M 19.003906 33.65625 C 19.066406 33.636719 19.074219 33.738281 19.011719 33.777344 C 18.390625 34.15625 18.21875 34.464844 18.203125 35.238281 C 18.203125 35.273438 18.1875 35.300781 18.15625 35.316406 C 18.121094 35.335938 18.101562 35.328125 18.101562 35.285156 C 17.96875 34.582031 17.761719 34.449219 17.125 34.652344 C 17.066406 34.671875 17.058594 34.570312 17.117188 34.535156 C 17.742188 34.152344 17.914062 33.84375 17.929688 33.070312 C 17.929688 33.035156 17.945312 33.011719 17.976562 32.996094 C 17.988281 32.988281 18 32.988281 18.011719 32.992188 C 18.023438 33 18.03125 33.011719 18.03125 33.023438 C 18.160156 33.726562 18.367188 33.863281 19.003906 33.65625 Z M 20.816406 35.109375 C 20.78125 35.125 20.757812 35.113281 20.742188 35.082031 L 20.078125 33.742188 C 20.0625 33.710938 20.023438 33.707031 19.988281 33.722656 C 19.945312 33.746094 19.914062 33.78125 19.894531 33.828125 L 19.0625 35.851562 C 19.042969 35.894531 19.019531 35.925781 18.980469 35.949219 L 17.292969 36.988281 C 17.207031 37.039062 17.167969 37.167969 17.226562 37.207031 L 18.371094 37.960938 C 18.398438 37.984375 18.40625 38.011719 18.394531 38.046875 L 18.015625 40.027344 C 18 40.105469 18.050781 40.140625 18.109375 40.113281 C 18.128906 40.105469 18.144531 40.09375 18.160156 40.078125 L 19.703125 38.519531 C 19.714844 38.507812 19.730469 38.496094 19.75 38.484375 C 19.765625 38.480469 19.78125 38.476562 19.796875 38.476562 L 21.253906 38.664062 C 21.269531 38.664062 21.285156 38.664062 21.300781 38.65625 C 21.371094 38.617188 21.40625 38.558594 21.40625 38.476562 L 21.214844 36.757812 C 21.210938 36.714844 21.222656 36.679688 21.246094 36.644531 L 22.527344 34.777344 C 22.589844 34.6875 22.5625 34.585938 22.480469 34.613281 Z M 33.648438 17.46875 C 33.644531 17.402344 33.613281 17.386719 33.558594 17.421875 C 33.507812 17.449219 33.484375 17.488281 33.480469 17.546875 C 33.441406 18.40625 33.222656 18.804688 32.539062 19.25 C 32.441406 19.3125 32.453125 19.472656 32.554688 19.445312 C 33.253906 19.242188 33.519531 19.417969 33.6875 20.183594 C 33.691406 20.246094 33.722656 20.261719 33.777344 20.226562 C 33.828125 20.203125 33.855469 20.160156 33.855469 20.105469 C 33.894531 19.242188 34.117188 18.84375 34.800781 18.402344 C 34.894531 18.339844 34.882812 18.175781 34.785156 18.203125 C 34.082031 18.40625 33.816406 18.234375 33.648438 17.46875 Z M 27.089844 18.519531 C 25.226562 19.386719 23.5 21.351562 22.160156 23.886719 C 23.277344 22.042969 24.636719 20.632812 26.085938 19.957031 L 26.125 19.9375 C 29.753906 18.285156 32.566406 21.914062 32.402344 28.039062 C 32.242188 34.140625 29.1875 40.417969 25.578125 42.097656 L 25.535156 42.117188 C 23.324219 43.125 21.417969 42.171875 20.304688 39.890625 C 21.46875 43.011719 23.769531 44.425781 26.480469 43.191406 L 26.527344 43.167969 C 30.546875 41.296875 33.945312 34.308594 34.125 27.515625 C 34.308594 20.695312 31.179688 16.660156 27.136719 18.496094 Z M 27.089844 18.519531 " fill-opacity="1" fill-rule="nonzero"/></g></g></g><g clip-path="url(#9cf4ccf7b7)"><path stroke-linecap="butt" transform="matrix(0.4891, 0, 0, 0.4891, 25.293614, 12.223142)" fill="none" stroke-linejoin="miter" d="M 5.429574 12.306369 C 5.06219 12.681739 4.806619 13.168922 4.806619 13.919664 L 4.806619 18.999146 L 10.636842 18.999146 L 10.636842 14.87007 C 10.636842 11.675427 14.925651 11.930998 14.925651 8.464811 L 14.925651 3.840565 L 9.231199 3.840565 L 9.231199 8.209239 C 9.231199 10.110052 8.416565 11.068445 6.931056 11.579588 C 5.996623 11.915025 4.894471 11.659454 4.854538 10.509382 C 4.806619 9.790587 5.453534 9.231525 6.180315 9.255485 L 6.156355 3.840565 L 0.557743 3.840565 L 0.557743 8.464811 C 0.557743 11.140324 3.129431 12.354289 5.429574 12.306369 Z M 5.429574 12.306369 " stroke="#5d5a87" stroke-width="2.070449" stroke-opacity="1" stroke-miterlimit="4"/></g><g fill="#fbfaff" fill-opacity="1"><g transform="translate(25.293614, 21.516043)"><g><path d="M 2.65625 -3.273438 C 2.476562 -3.089844 2.347656 -2.851562 2.347656 -2.488281 L 2.347656 0 L 5.199219 0 L 5.199219 -2.019531 C 5.199219 -3.582031 7.300781 -3.457031 7.300781 -5.15625 L 7.300781 -7.414062 L 4.515625 -7.414062 L 4.515625 -5.28125 C 4.515625 -4.34375 4.117188 -3.878906 3.386719 -3.628906 C 2.929688 -3.46875 2.394531 -3.59375 2.371094 -4.152344 C 2.347656 -4.503906 2.667969 -4.777344 3.023438 -4.769531 L 3.011719 -7.414062 L 0.273438 -7.414062 L 0.273438 -5.15625 C 0.273438 -3.84375 1.527344 -3.25 2.65625 -3.273438 Z M 2.65625 -3.273438 "/></g></g></g></svg>