<svg xmlns="http://www.w3.org/2000/svg" xmlns:xlink="http://www.w3.org/1999/xlink" viewBox="0 0 1066.32 1087.64"><defs><style>.cls-1,.cls-4{fill:none;}.cls-2{clip-path:url(#clip-path);}.cls-3{fill:#5d5a87;}.cls-4{stroke:#5d5a87;stroke-miterlimit:61.02;stroke-width:31.59px;}.cls-5{fill:#fbfaff;}.cls-6{clip-path:url(#clip-path-2);}.cls-7{clip-path:url(#clip-path-3);}.cls-8{clip-path:url(#clip-path-4);}.cls-9{clip-path:url(#clip-path-5);}</style><clipPath id="clip-path" transform="translate(-0.56 -0.03)"><rect class="cls-1" width="536.15" height="543.97"/></clipPath><clipPath id="clip-path-2" transform="translate(-0.56 -0.03)"><rect class="cls-1" x="957.37" y="265.53" width="102.67" height="117.33" transform="translate(669.42 1327.92) rotate(-89.14)"/></clipPath><clipPath id="clip-path-3" transform="translate(-0.56 -0.03)"><rect class="cls-1" x="976.47" y="224.69" width="84.89" height="138.51" transform="translate(-31.23 441.53) rotate(-24.09)"/></clipPath><clipPath id="clip-path-4" transform="translate(-0.56 -0.03)"><rect class="cls-1" x="437.58" y="339.67" width="766.25" height="690.3" transform="translate(-208.07 394.72) rotate(-24.1)"/></clipPath><clipPath id="clip-path-5" transform="translate(-0.56 -0.03)"><rect class="cls-1" x="597.48" y="16.53" width="477.64" height="589.33"/></clipPath></defs><g id="Layer_2" data-name="Layer 2"><g id="Layer_1-2" data-name="Layer 1"><g class="cls-2"><path class="cls-3" d="M89.24,253.57c1.56.2.66,2.56-1,2.75-17.82,2-24.88,7.12-33.24,24.2a2.15,2.15,0,0,1-1.84,1.23.86.86,0,0,1-.45-.07.81.81,0,0,1-.36-.28.87.87,0,0,1-.17-.42,1,1,0,0,1,.06-.45c4.39-17.08,1.19-22.19-15.15-24.2-1.56-.19-.66-2.56,1-2.75,17.82-2,24.88-7.12,33.24-24.2a2.15,2.15,0,0,1,1.84-1.23.83.83,0,0,1,.81.35.81.81,0,0,1,.1.88C69.7,246.44,72.91,251.56,89.24,253.57Zm25.3,51.2a1.4,1.4,0,0,1-1.36-1.36l-.91-36.76c0-.92-.8-1.38-1.76-1.38a4.81,4.81,0,0,0-3.21,1.35L67.73,303.14A5.09,5.09,0,0,1,65,304.46l-48.42,5.62c-2.41.28-4.62,2.76-3.74,4.19L30.5,343a1.87,1.87,0,0,1,.15,1.14,1.9,1.9,0,0,1-.51,1l-29,40.21c-1.14,1.61-.4,2.9,1.23,2.9A4,4,0,0,0,3.78,388l50.56-18.74a4,4,0,0,1,1.41-.28,2.14,2.14,0,0,1,1.16.3l30.5,19.26a2.19,2.19,0,0,0,1.15.29,4.92,4.92,0,0,0,2.51-.84,4.79,4.79,0,0,0,1.71-2l13.54-40.32a4.24,4.24,0,0,1,1.94-2.17l47.86-28.31c2.41-1.42,2.8-3.91.69-4.21ZM583.61,44.63a1.12,1.12,0,0,0,.09-.36,1.51,1.51,0,0,0,0-.37,1.36,1.36,0,0,0-.1-.36,1.77,1.77,0,0,0-.19-.33,1.66,1.66,0,0,0-.27-.26,1.26,1.26,0,0,0-.32-.18,1.39,1.39,0,0,0-.74-.1,3.5,3.5,0,0,0-1.77.57,3.61,3.61,0,0,0-1.24,1.39C569.23,63.44,560.19,70,540.35,72.8c-2.77.4-4.18,4.17-1.7,4.56,17.75,2.79,21.87,9.37,17.65,28.18a1.48,1.48,0,0,0,.82,1.86,1.51,1.51,0,0,0,.73.1,3.57,3.57,0,0,0,1.78-.57,3.66,3.66,0,0,0,1.23-1.39c9.83-18.81,18.87-25.39,38.71-28.18,2.77-.39,4.19-4.16,1.71-4.56C583.49,70,579.38,63.44,583.61,44.63ZM426.54,0C376,0,317.07,25.92,260.94,68.6c44-29.52,89-46.9,128.22-46.9h1.13c98,.8,123.05,110.81,55.88,245.6-66.9,134.34-200,242.64-298,242.64h-1.13c-59.7-.52-92.3-41.51-93.53-103.92C47.11,487.7,83.76,543,157,543.66h1.26c109.05,0,257.28-120.58,331.78-270.11C564.81,123.43,536.94,1,427.8,0Z" transform="translate(-0.56 -0.03)"/></g><path class="cls-4" d="M441.51,367.54c0-55.85-56.89-76.09-101.36-55.85C358,291.45,388.53,281.81,414.5,285a61.93,61.93,0,0,1,26,8.52V196.78c-44.12-17.46-95.71-3.56-93.89,55.15.7,24.15-6.77,55.16-34.57,57.24V195H224.55V426.6H312V321.33c26.06,1.39,41,23.1,41,46.21v58.71h88.5Zm206.65-72.18L648.51,195H518.66c-71.14,0-82.17,94.59-17.46,114.48-66.44,20-62.88,116.73,17.46,116.73h129.5l.35-101c-17.81,0-80.35-3.56-79.65,50.46,0,18.16,7.47,29.88,18.15,37.35L585.19,417c-25.28-5.65-41.26-32-40.91-57.24.69-29.53,27-45.86,56.54-46.64V306c-36.22-1-57.24-30.92-55.5-58.28a46.87,46.87,0,0,1,39.52-43.43l1.83,3.91c-10.69,7.47-18.16,19.19-17.81,37.35C569.55,306,648.16,295.36,648.16,295.36Zm105.59,33.09V195h-90V426.25H807.51V329.5c-16.76,0-79.73-3.57-79,47.68.35,19.54,9.64,31.26,21.72,38l-1.39,3.91c-32-4.26-41.61-23.45-41.61-43.43C706.41,346.17,726,330.54,753.75,328.45Z" transform="translate(-0.56 -0.03)"/><path class="cls-5" d="M441.55,367.54c0-55.85-56.92-76.13-101.39-55.85C358,291.41,388.54,281.81,414.51,285a62.33,62.33,0,0,1,26,8.55V196.78c-44.12-17.43-95.71-3.56-93.93,55.14.72,24.19-6.76,55.14-34.51,57.28V195H224.54V426.6h87.51V321.3c26,1.42,40.91,23.12,40.91,46.24v58.7h88.59Z" transform="translate(-0.56 -0.03)"/><path class="cls-5" d="M648.17,295.32,648.53,195H518.67c-71.15,0-82.17,94.63-17.43,114.55-66.52,19.93-63,116.69,17.43,116.69h129.5l.36-101c-17.79,0-80.4-3.56-79.7,50.51,0,18.15,7.48,29.89,18.15,37.36L585.2,417c-25.26-5.69-41.27-32-40.91-57.27.71-29.53,27-45.9,56.57-46.61V306c-36.29-1.06-57.28-30.94-55.5-58.34,1.06-20.63,16.36-39.49,39.49-43.4l1.77,3.91c-10.67,7.47-18.14,19.21-17.79,37.36C569.55,306,648.17,295.32,648.17,295.32Z" transform="translate(-0.56 -0.03)"/><path class="cls-5" d="M753.76,328.41V195h-90V426.24H807.48V329.48c-16.72,0-79.69-3.56-79,47.67.35,19.56,9.6,31.3,21.69,38.06l-1.42,3.92c-32-4.27-41.62-23.48-41.62-43.41C706.45,346.2,726,330.54,753.76,328.41Z" transform="translate(-0.56 -0.03)"/><g class="cls-6"><g class="cls-7"><g class="cls-8"><path class="cls-3" d="M564.83,773.71c1.9-.59,2.1,2.62.23,3.72-19.62,11.56-25.14,21.14-26,45.26a2.67,2.67,0,0,1-.42,1.4,2.72,2.72,0,0,1-1.07,1,1.25,1.25,0,0,1-.56.16,1.19,1.19,0,0,1-.56-.14,1.34,1.34,0,0,1-.42-.4,1.25,1.25,0,0,1-.16-.56c-3.77-22.06-10.13-26.32-30.09-20.19-1.91.59-2.1-2.62-.23-3.72,19.61-11.57,25.14-21.14,26-45.26a2.74,2.74,0,0,1,1.49-2.38,1,1,0,0,1,1.12,0,1,1,0,0,1,.58,1C538.5,775.56,544.86,779.83,564.83,773.71Zm55.84,46.21a1.78,1.78,0,0,1-1.31,0,1.69,1.69,0,0,1-.57-.35,1.55,1.55,0,0,1-.39-.53l-20.1-42.12c-.48-1.07-1.65-1.18-2.77-.69a6.15,6.15,0,0,0-3,3.23l-26.91,62.8a6.42,6.42,0,0,1-2.54,3l-53.19,31.61c-2.64,1.57-3.93,5.58-2.16,6.79l35.39,24.06a2.52,2.52,0,0,1,.77,1.25,2.46,2.46,0,0,1-.06,1.47L531,972.05c-.5,2.46,1,3.57,2.91,2.73a5,5,0,0,0,1.53-1.07l48.87-47.91a5.3,5.3,0,0,1,1.49-1,2.65,2.65,0,0,1,1.49-.26L632.63,931a2.61,2.61,0,0,0,1.48-.26,6,6,0,0,0,2.48-2.27,6.13,6.13,0,0,0,.93-3.23l-5.2-53.72a5.48,5.48,0,0,1,1.12-3.53l40.78-57.6c2.06-2.88,1.23-6-1.38-5.23Zm408.68-544.44a2.46,2.46,0,0,0-.1-.47,1.62,1.62,0,0,0-.2-.42,1.8,1.8,0,0,0-.3-.37,2.09,2.09,0,0,0-.39-.27,2.2,2.2,0,0,0-.45-.17,2,2,0,0,0-.93,0,2.17,2.17,0,0,0-.44.19,4.33,4.33,0,0,0-1.75,1.59,4.29,4.29,0,0,0-.72,2.25c-1.65,26.88-8.71,39.18-30.25,52.69-3,1.9-2.68,7,.38,6.17,22-6,30.2-.47,35.06,23.49a1.86,1.86,0,0,0,.09.47,2,2,0,0,0,.2.42,2.25,2.25,0,0,0,.31.37,2.09,2.09,0,0,0,.39.27,1.72,1.72,0,0,0,.45.16,1.8,1.8,0,0,0,.46.05,1.78,1.78,0,0,0,.47-.07,2.17,2.17,0,0,0,.44-.19,4.53,4.53,0,0,0,2.47-3.84c1.64-26.87,8.71-39.19,30.25-52.7,3-1.88,2.68-7-.38-6.16C1042.35,305,1034.18,299.46,1029.35,275.48Zm-205.1,29.71c-58.58,26.2-113.41,86.72-156.33,165.25,35.74-57,78.76-100.43,124.25-120.77l1.31-.59c114-49.86,200,64.63,192,255.6C977.57,795,879.42,989.44,766,1040.18l-1.31.59c-69.43,30.33-128.44-.26-162.21-71.95,34.89,98,106,143.08,191.18,105.87l1.46-.65c126.34-56.5,235.61-273,244.44-484.85,8.87-212.67-86.87-340.11-213.81-284.65Z" transform="translate(-0.56 -0.03)"/></g></g></g><g class="cls-9"><path class="cls-4" d="M851.41,324.46c-5.64,5.73-9.56,13.2-9.56,24.58V426.6H930.8v-63c0-48.73,65.4-44.82,65.4-97.8V195.39H909.43v66.53c0,29.1-12.42,43.69-35.18,51.5-14.24,5.05-31,1.13-31.7-16.32-.7-11,9.21-19.55,20.24-19.2l-.35-82.51H777.06v70.44C777.06,306.74,816.23,325.24,851.41,324.46Z" transform="translate(-0.56 -0.03)"/></g><path class="cls-5" d="M851.44,324.49c-5.69,5.7-9.6,13.17-9.6,24.55V426.6h88.93v-63c0-48.74,65.47-44.83,65.47-97.83V195.35H909.43v66.53c0,29.18-12.45,43.76-35.22,51.59-14.23,5-31,1.07-31.66-16.37-.71-11,9.25-19.56,20.28-19.21l-.36-82.54H777.09V265.8C777.09,306.71,816.22,325.21,851.44,324.49Z" transform="translate(-0.56 -0.03)"/></g></g></svg>