<svg xmlns="http://www.w3.org/2000/svg" xmlns:xlink="http://www.w3.org/1999/xlink" viewBox="0 0 1080 1092.01"><defs><style>.cls-1,.cls-5{fill:none;}.cls-2{fill:#fbfaff;}.cls-3{clip-path:url(#clip-path);}.cls-4{fill:#5d5a87;}.cls-5{stroke:#5d5a87;stroke-miterlimit:61.02;stroke-width:31.59px;}.cls-6{clip-path:url(#clip-path-2);}.cls-7{clip-path:url(#clip-path-3);}.cls-8{clip-path:url(#clip-path-4);}.cls-9{clip-path:url(#clip-path-5);}</style><clipPath id="clip-path"><rect class="cls-1" x="8.03" y="4.34" width="536.15" height="543.97"/></clipPath><clipPath id="clip-path-2"><rect class="cls-1" x="965.4" y="269.87" width="102.67" height="117.33" transform="translate(672.98 1340.23) rotate(-89.14)"/></clipPath><clipPath id="clip-path-3"><rect class="cls-1" x="984.5" y="229.03" width="84.89" height="138.51" transform="translate(-32.31 445.19) rotate(-24.09)"/></clipPath><clipPath id="clip-path-4"><rect class="cls-1" x="445.61" y="344.01" width="766.25" height="690.3" transform="translate(-209.14 398.38) rotate(-24.1)"/></clipPath><clipPath id="clip-path-5"><rect class="cls-1" x="605.51" y="20.87" width="477.64" height="589.33"/></clipPath></defs><g id="Layer_2" data-name="Layer 2"><g id="Layer_1-2" data-name="Layer 1"><rect class="cls-2" width="1080" height="553.6"/><g class="cls-3"><path class="cls-4" d="M97.27,257.92c1.56.19.66,2.55-1,2.75-17.83,2-24.88,7.12-33.24,24.19a2,2,0,0,1-.75.87,2,2,0,0,1-1.09.36.85.85,0,0,1-.81-.35.87.87,0,0,1-.17-.42.88.88,0,0,1,.06-.45c4.39-17.07,1.18-22.19-15.15-24.19-1.56-.2-.67-2.57,1-2.76,17.82-2,24.88-7.12,33.24-24.2a2.11,2.11,0,0,1,.75-.87,2.21,2.21,0,0,1,1.09-.36.84.84,0,0,1,.81.35.81.81,0,0,1,.1.88C77.73,250.78,80.94,255.9,97.27,257.92Zm25.3,51.19a1.4,1.4,0,0,1-1.36-1.36L120.3,271c0-.92-.8-1.38-1.77-1.38a4.79,4.79,0,0,0-3.2,1.35L75.76,307.48A5.14,5.14,0,0,1,73,308.81l-48.43,5.62c-2.4.28-4.61,2.75-3.73,4.18l17.71,28.7a1.9,1.9,0,0,1,.15,1.15,1.87,1.87,0,0,1-.51,1l-29,40.21c-1.14,1.61-.4,2.9,1.23,2.9a3.91,3.91,0,0,0,1.43-.28l50.57-18.74a4.2,4.2,0,0,1,1.41-.27,2,2,0,0,1,1.16.29l30.5,19.26a2.08,2.08,0,0,0,1.15.29,4.83,4.83,0,0,0,2.51-.84,4.77,4.77,0,0,0,1.7-2L114.35,350a4.32,4.32,0,0,1,1.94-2.17l47.86-28.31c2.4-1.41,2.8-3.9.69-4.2ZM591.64,49a1.12,1.12,0,0,0,.09-.36,1.51,1.51,0,0,0,0-.37,1.36,1.36,0,0,0-.1-.36,2.07,2.07,0,0,0-.19-.32,1.33,1.33,0,0,0-.27-.26,1.29,1.29,0,0,0-.32-.19,1.61,1.61,0,0,0-.36-.1,1.21,1.21,0,0,0-.38,0,3.55,3.55,0,0,0-3,2c-9.83,18.81-18.87,25.38-38.71,28.18-2.77.39-4.18,4.16-1.71,4.55,17.76,2.79,21.87,9.38,17.66,28.18a1.4,1.4,0,0,0-.07.73,1.57,1.57,0,0,0,.29.69,1.47,1.47,0,0,0,.6.44,1.4,1.4,0,0,0,.73.1,3.55,3.55,0,0,0,3-2c9.83-18.8,18.87-25.39,38.71-28.18,2.77-.39,4.18-4.16,1.71-4.55C591.52,74.35,587.41,67.78,591.64,49ZM434.57,4.37C384,4.37,325.1,30.27,269,72.94c44-29.51,89-46.9,128.22-46.9h1.13c98,.8,123.05,110.81,55.88,245.61-66.91,134.33-200,242.63-298,242.63h-1.13c-59.7-.52-92.31-41.5-93.54-103.92C55.14,492,91.78,547.36,165,548h1.26c109,0,257.28-120.57,331.78-270.11C572.84,127.78,545,5.32,435.83,4.37Z"/></g><path class="cls-5" d="M449.54,371.88c0-55.85-56.89-76.09-101.36-55.85,17.81-20.24,48.38-29.88,74.35-26.66a62.06,62.06,0,0,1,26,8.51V201.12c-44.12-17.46-95.72-3.56-93.89,55.16.69,24.14-6.77,55.15-34.57,57.23V199.39H232.58V430.94H320V325.67c26.06,1.39,41,23.11,41,46.21V430.6h88.51ZM656.19,299.7l.34-100.31H526.69c-71.14,0-82.17,94.58-17.46,114.47-66.45,20-62.88,116.74,17.46,116.74h129.5l.34-101c-17.8,0-80.34-3.56-79.64,50.46,0,18.16,7.47,29.88,18.15,37.35l-1.82,3.91c-25.28-5.64-41.26-32-40.91-57.24.69-29.53,27-45.86,56.54-46.64V310.3c-36.22-1-57.24-30.92-55.5-58.28a46.85,46.85,0,0,1,39.52-43.42l1.83,3.9C584,220,576.54,231.69,576.89,249.85,577.58,310.3,656.19,299.7,656.19,299.7Zm105.59,33.09V199.39h-90V430.6H815.54V333.84c-16.76,0-79.74-3.56-79,47.68.35,19.54,9.64,31.27,21.72,38l-1.39,3.91C724.78,419.21,715.22,400,715.22,380,714.44,350.51,734.07,334.88,761.78,332.79Z"/><path class="cls-2" d="M449.58,371.88c0-55.85-56.92-76.13-101.39-55.85,17.79-20.28,48.38-29.88,74.35-26.68a62.23,62.23,0,0,1,26,8.54V201.12c-44.11-17.43-95.7-3.55-93.92,55.14.72,24.2-6.76,55.15-34.51,57.28V199.34H232.57v231.6h87.51V325.64c26,1.42,40.91,23.12,40.91,46.24v58.71h88.59Z"/><path class="cls-2" d="M656.2,299.67l.36-100.33H526.7c-71.15,0-82.17,94.63-17.43,114.55-66.53,19.93-63,116.7,17.43,116.7H656.2l.36-101c-17.8,0-80.4-3.56-79.7,50.52,0,18.14,7.48,29.88,18.15,37.35l-1.78,3.92c-25.26-5.7-41.27-32-40.91-57.28.71-29.53,27-45.89,56.56-46.6v-7.12c-36.28-1.07-57.27-30.95-55.5-58.35,1.07-20.63,16.37-39.49,39.49-43.4l1.78,3.91C584,220,576.51,231.72,576.86,249.86,577.58,310.34,656.2,299.67,656.2,299.67Z"/><path class="cls-2" d="M761.79,332.75V199.34h-90V430.59H815.51V333.82c-16.72,0-79.69-3.56-79,47.67.36,19.57,9.61,31.31,21.7,38.07l-1.42,3.91c-32-4.27-41.63-23.48-41.63-43.4C714.48,350.54,734,334.88,761.79,332.75Z"/><g class="cls-6"><g class="cls-7"><g class="cls-8"><path class="cls-4" d="M572.86,778.05c1.9-.58,2.1,2.62.22,3.73-19.61,11.56-25.13,21.14-26,45.26a2.66,2.66,0,0,1-.42,1.39,2.72,2.72,0,0,1-1.07,1,1.13,1.13,0,0,1-.56.16,1.08,1.08,0,0,1-.56-.14,1.24,1.24,0,0,1-.42-.4,1.1,1.1,0,0,1-.16-.56c-3.77-22.05-10.13-26.32-30.09-20.18-1.91.58-2.1-2.62-.23-3.73,19.61-11.57,25.14-21.14,26-45.26a2.77,2.77,0,0,1,1.49-2.38,1.07,1.07,0,0,1,1.12,0,1.06,1.06,0,0,1,.58,1C546.53,779.9,552.89,784.18,572.86,778.05Zm55.84,46.21a1.65,1.65,0,0,1-.66.13,1.87,1.87,0,0,1-1.22-.46,1.9,1.9,0,0,1-.4-.54l-20.1-42.12c-.47-1.07-1.64-1.18-2.76-.68a6.13,6.13,0,0,0-3,3.22l-26.91,62.8a6.5,6.5,0,0,1-2.54,3L517.9,881.2c-2.64,1.57-3.93,5.58-2.16,6.79l35.39,24.07a2.55,2.55,0,0,1,.71,2.71L539.05,976.4c-.5,2.45,1,3.57,2.91,2.72a5,5,0,0,0,1.53-1.07l48.87-47.91a5,5,0,0,1,1.49-1,2.73,2.73,0,0,1,1.49-.26l45.32,6.51a2.69,2.69,0,0,0,1.48-.25,6.26,6.26,0,0,0,2.48-2.28,6.13,6.13,0,0,0,.93-3.23l-5.2-53.72a5.49,5.49,0,0,1,1.12-3.53l40.78-57.59c2.06-2.89,1.23-6-1.38-5.23Zm408.68-544.44a2.36,2.36,0,0,0-.1-.46,1.54,1.54,0,0,0-.2-.43,1.34,1.34,0,0,0-.31-.36,1.46,1.46,0,0,0-.38-.27,1.74,1.74,0,0,0-.45-.17,1.83,1.83,0,0,0-.47-.05,1.93,1.93,0,0,0-.47.08,1.78,1.78,0,0,0-.43.18,4.57,4.57,0,0,0-2.47,3.84c-1.65,26.88-8.71,39.18-30.25,52.7-3,1.89-2.69,7,.38,6.17,22-6,30.2-.47,35.06,23.49a1.5,1.5,0,0,0,.09.46,1.69,1.69,0,0,0,.2.43,2.11,2.11,0,0,0,.31.36,1.7,1.7,0,0,0,.39.27,2.2,2.2,0,0,0,.45.17,1.79,1.79,0,0,0,.46,0,1.84,1.84,0,0,0,.47-.07,2.44,2.44,0,0,0,.44-.19,4.37,4.37,0,0,0,1.75-1.58,4.54,4.54,0,0,0,.72-2.26c1.64-26.87,8.71-39.19,30.25-52.69,3-1.89,2.68-7-.38-6.17C1050.38,309.29,1042.21,303.81,1037.38,279.82Zm-205.1,29.71C773.7,335.74,718.87,396.25,676,474.78c35.74-57,78.76-100.43,124.24-120.77l1.32-.58c114-49.87,200,64.62,192,255.59-7.9,190.31-106,384.76-219.51,435.5l-1.31.59c-69.43,30.33-128.44-.26-162.21-71.94,34.89,98,106,143.07,191.17,105.87l1.47-.66c126.33-56.5,235.6-273,244.44-484.84,8.86-212.68-86.87-340.11-213.81-284.66Z"/></g></g></g><g class="cls-9"><path class="cls-5" d="M859.44,328.8c-5.65,5.73-9.56,13.2-9.56,24.58v77.56h89V368c0-48.72,65.4-44.82,65.4-97.8V199.74H917.46v66.52c0,29.1-12.43,43.69-35.18,51.51-14.25,5-31,1.13-31.7-16.33-.7-11,9.2-19.54,20.24-19.19l-.35-82.51H785.09v70.43C785.09,311.08,824.26,329.58,859.44,328.8Z"/></g><path class="cls-2" d="M859.47,328.84c-5.69,5.69-9.61,13.16-9.61,24.54v77.56H938.8V368c0-48.74,65.47-44.83,65.47-97.83V199.7H917.46v66.53c0,29.17-12.45,43.75-35.22,51.58-14.23,5-31,1.07-31.66-16.36-.72-11,9.25-19.57,20.27-19.22l-.35-82.53H785.11v70.44C785.11,311.05,824.25,329.55,859.47,328.84Z"/></g></g></svg>